<svg xmlns="http://www.w3.org/2000/svg" xmlns:xlink="http://www.w3.org/1999/xlink" version="1.1" x="0px" y="0px" viewBox="0 0 100 125" enable-background="new 0 0 100 100" xml:space="preserve"><circle cx="20.885" cy="67.204" r="6.545"/><path d="M31.664,6.659c0.624-0.267,1.298-0.445,2.009-0.516c3.766-0.374,7.123,2.397,7.499,6.191  c0.377,3.794-2.369,7.174-6.135,7.548c-2.39,0.237-4.613-0.797-6.015-2.554c-1.904,1.599-4.319,6.823-8.136-0.228  C25.761,21.008,25.59,8.772,31.664,6.659z"/><path d="M43.969,49.654l-0.426-8.004l7.941,5.042l0.029-0.023l0.029,0.023l0.017-0.06l2.894-2.061l-8.392-21.286l-11.16-0.03  l-11.16,0.03l-8.391,21.286l2.969,2.12l0.003-0.002l7.938-5.039l-0.425,8.004H8.199v3h82.674v-3H43.969z M35.402,29.69l8.982-2.681  v10.004l-0.765-0.551l-3.172,2.444l1.878,1.488l-6.924,2.067V29.69z M26.244,36.462l-0.823,0.593V27.009l8.981,2.681v12.77  l-6.881-2.054l1.895-1.5L26.244,36.462z"/><circle cx="78.321" cy="67.204" r="6.545"/><polygon points="12.825,89.483 14.412,89.817 13.556,93.891 27.946,93.891 27.09,89.817 28.677,89.483 29.604,93.891 33.303,93.891   29.818,77.117 11.685,77.117 8.199,93.891 11.899,93.891 "/><polygon points="70.395,89.483 71.982,89.817 71.126,93.891 85.516,93.891 84.659,89.817 86.247,89.483 87.173,93.891   90.873,93.891 87.387,77.117 69.255,77.117 65.769,93.891 69.469,93.891 "/><circle cx="49.536" cy="67.204" r="6.545"/><polygon points="41.61,89.483 43.198,89.817 42.341,93.891 56.731,93.891 55.875,89.817 57.462,89.483 58.388,93.891 62.088,93.891   58.602,77.117 40.47,77.117 36.984,93.891 40.684,93.891 "/></svg>
